# xmcd
#
# Track frame offsets: 
#        150
#        22125
#        35484
#        52975
#        70203
#        93132
#        107312
#        122206
#        142372
#        165874
#
# Disc length: 2622 seconds
#
# Revision: 0
# Processed by: cddbd v1.5.2PL0 Copyright (c) Steve Scherf et al.
# Submitted via: ExactAudioCopy v1.1
#
DISCID=810a3c0a
DTITLE=Jake Stokes - Midnight
DYEAR=2011
DGENRE=
TTITLE0=Midnight
TTITLE1=Jasmine
TTITLE2=Tattoo
TTITLE3=Endless Blues
TTITLE4=October Air
TTITLE5=Ain't Got No Love
TTITLE6=Bad Girl Blues
TTITLE7=Make Believe
TTITLE8=Long Time Dead
TTITLE9=Today
EXTD=
EXTT0=
EXTT1=
EXTT2=
EXTT3=
EXTT4=
EXTT5=
EXTT6=
EXTT7=
EXTT8=
EXTT9=
PLAYORDER=
